<svg width="362px" height="223px" viewBox="0 0 362 223" version="1.1" xmlns="http://www.w3.org/2000/svg" xmlns:xlink="http://www.w3.org/1999/xlink">
    <g id="Page-1" stroke="none" stroke-width="1" fill="none" fill-rule="evenodd">
        <g id="noun-back-arrow-3565454" transform="translate(0.120900, 0.559900)" fill="#000000" fill-rule="nonzero">
            <path d="M59.9191,94.0801 L344.3991,94.0801 C353.9186,94.0801 361.7581,101.9199 361.7581,111.4391 C361.7581,120.9583 353.9183,128.7981 344.3991,128.7981 L59.9191,128.7981 L123.2001,192.0791 C129.9189,198.7979 129.9189,210.0011 123.2001,216.7201 C116.4813,223.4391 105.2781,223.4389 98.5591,216.7201 L5.0391,123.2001 C-1.6797,116.4813 -1.6797,105.2781 5.0391,98.5591 L98.5591,5.0391 C105.2779,-1.6797 116.4811,-1.6797 123.2001,5.0391 C129.9191,11.7579 129.9189,22.9611 123.2001,29.6801 L59.9191,94.0801 Z" id="Path"></path>
        </g>
    </g>
</svg>
