
<svg width="560px" height="560px" viewBox="0 0 560 560" version="1.1" xmlns="http://www.w3.org/2000/svg" xmlns:xlink="http://www.w3.org/1999/xlink">
    <g id="Page-1" stroke="none" stroke-width="1" fill="none" fill-rule="evenodd">
        <g id="noun-cry-4323956" fill="#000000" fill-rule="nonzero">
            <polygon id="Path" points="280 0 315 0 315 35 280 35"></polygon>
            <polygon id="Path" points="315 0 350 0 350 35 315 35"></polygon>
            <polygon id="Path" points="245 0 280 0 280 35 245 35"></polygon>
            <polygon id="Path" points="210 0 245 0 245 35 210 35"></polygon>
            <polygon id="Path" points="175 35 210 35 210 70 175 70"></polygon>
            <polygon id="Path" points="140 35 175 35 175 70 140 70"></polygon>
            <polygon id="Path" points="385 35 420 35 420 70 385 70"></polygon>
            <polygon id="Path" points="350 35 385 35 385 70 350 70"></polygon>
            <polygon id="Path" points="280 525 315 525 315 560 280 560"></polygon>
            <polygon id="Path" points="315 525 350 525 350 560 315 560"></polygon>
            <polygon id="Path" points="245 525 280 525 280 560 245 560"></polygon>
            <polygon id="Path" points="210 525 245 525 245 560 210 560"></polygon>
            <polygon id="Path" points="175 490 210 490 210 525 175 525"></polygon>
            <polygon id="Path" points="140 490 175 490 175 525 140 525"></polygon>
            <polygon id="Path" points="385 490 420 490 420 525 385 525"></polygon>
            <polygon id="Path" points="350 490 385 490 385 525 350 525"></polygon>
            <polygon id="Path" points="560 280 560 315 525 315 525 280"></polygon>
            <polygon id="Path" points="560 315 560 350 525 350 525 315"></polygon>
            <polygon id="Path" points="560 245 560 280 525 280 525 245"></polygon>
            <polygon id="Path" points="560 210 560 245 525 245 525 210"></polygon>
            <polygon id="Path" points="525 175 525 210 490 210 490 175"></polygon>
            <polygon id="Path" points="525 140 525 175 490 175 490 140"></polygon>
            <polygon id="Path" points="525 385 525 420 490 420 490 385"></polygon>
            <polygon id="Path" points="525 350 525 385 490 385 490 350"></polygon>
            <polygon id="Path" points="35 280 35 315 0 315 0 280"></polygon>
            <polygon id="Path" points="35 315 35 350 0 350 0 315"></polygon>
            <polygon id="Path" points="35 245 35 280 0 280 0 245"></polygon>
            <polygon id="Path" points="35 210 35 245 0 245 0 210"></polygon>
            <polygon id="Path" points="70 175 70 210 35 210 35 175"></polygon>
            <polygon id="Path" points="70 140 70 175 35 175 35 140"></polygon>
            <polygon id="Path" points="70 385 70 420 35 420 35 385"></polygon>
            <polygon id="Path" points="70 350 70 385 35 385 35 350"></polygon>
            <polygon id="Path" points="105 70 140 70 140 105 105 105"></polygon>
            <polygon id="Path" points="420 70 455 70 455 105 420 105"></polygon>
            <polygon id="Path" points="70 105 105 105 105 140 70 140"></polygon>
            <polygon id="Path" points="70 420 105 420 105 455 70 455"></polygon>
            <polygon id="Path" points="105 455 140 455 140 490 105 490"></polygon>
            <polygon id="Path" points="420 455 455 455 455 490 420 490"></polygon>
            <polygon id="Path" points="455 420 490 420 490 455 455 455"></polygon>
            <polygon id="Path" points="455 105 490 105 490 140 455 140"></polygon>
            <polygon id="Path" points="175 175 210 175 210 210 175 210"></polygon>
            <polygon id="Path" points="140 175 175 175 175 210 140 210"></polygon>
            <polygon id="Path" points="175 245 210 245 210 280 175 280"></polygon>
            <polygon id="Path" points="140 245 175 245 175 280 140 280"></polygon>
            <polygon id="Path" points="210 210 245 210 245 245 210 245"></polygon>
            <polygon id="Path" points="385 210 350 210 350 175 385 175"></polygon>
            <polygon id="Path" points="420 210 385 210 385 175 420 175"></polygon>
            <polygon id="Path" points="385 280 350 280 350 245 385 245"></polygon>
            <polygon id="Path" points="420 280 385 280 385 245 420 245"></polygon>
            <polygon id="Path" points="350 245 315 245 315 210 350 210"></polygon>
            <polygon id="Path" points="280 315 315 315 315 350 280 350"></polygon>
            <polygon id="Path" points="315 350 350 350 350 385 315 385"></polygon>
            <polygon id="Path" points="315 385 350 385 350 420 315 420"></polygon>
            <polygon id="Path" points="245 315 280 315 280 350 245 350"></polygon>
            <polygon id="Path" points="280 420 315 420 315 455 280 455"></polygon>
            <polygon id="Path" points="245 420 280 420 280 455 245 455"></polygon>
            <polygon id="Path" points="210 350 245 350 245 385 210 385"></polygon>
            <polygon id="Path" points="210 385 245 385 245 420 210 420"></polygon>
            <polygon id="Path" points="105 315 140 315 140 350 105 350"></polygon>
            <polygon id="Path" points="105 385 140 385 140 420 105 420"></polygon>
            <polygon id="Path" points="420 385 455 385 455 420 420 420"></polygon>
            <polygon id="Path" points="420 315 455 315 455 350 420 350"></polygon>
        </g>
    </g>
</svg>
