
<svg width="468px" height="468px" viewBox="0 0 468 468" version="1.1" xmlns="http://www.w3.org/2000/svg" xmlns:xlink="http://www.w3.org/1999/xlink">
    <g id="Page-1" stroke="none" stroke-width="1" fill="none" fill-rule="evenodd">
        <g id="noun-error-4671888" transform="translate(0.670000, 0.668000)" fill="#000000" fill-rule="nonzero">
            <path d="M233.33,2.84217094e-14 C104.67,2.84217094e-14 2.84217094e-14,104.67 2.84217094e-14,233.33 C2.84217094e-14,361.99 104.67,466.66 233.33,466.66 C361.99,466.66 466.66,361.99 466.66,233.33 C466.66,104.67 361.99,2.84217094e-14 233.33,2.84217094e-14 Z M233.388594,373.33 C220.533594,373.33 209.997594,362.881 209.997594,349.998 C209.997594,337.111 220.294594,326.665999 233.149594,326.665999 L233.387874,326.665999 C246.239874,326.662093 256.660874,337.111 256.660874,349.998 C256.660874,362.881 246.238874,373.33 233.387874,373.33 L233.388594,373.33 Z M256.661594,279.998 C256.661594,292.885 246.212594,303.33 233.329594,303.33 C220.442594,303.33 209.997594,292.881 209.997594,279.998 L209.997594,116.658 C209.997594,103.771 220.446594,93.326 233.329594,93.326 C246.216594,93.326 256.661594,103.775 256.661594,116.658 L256.661594,279.998 Z" id="Shape"></path>
        </g>
    </g>
</svg>
