<svg width="60px" height="60px" viewBox="0 0 60 60" version="1.1" xmlns="http://www.w3.org/2000/svg" xmlns:xlink="http://www.w3.org/1999/xlink">
    <g id="Page-1" stroke="none" stroke-width="1" fill="none" fill-rule="evenodd">
        <g id="noun_Cross_674957" transform="translate(0.541795, 0.541795)" fill="#999999" fill-rule="nonzero">
            <g id="Path">
                <path d="M21.6747836,27.3316378 C22.8492541,28.5061083 22.8499106,30.4096448 21.6747836,31.5847718 L1.16698879,52.0925666 C-0.391272909,53.6508283 -0.384985109,56.1835574 1.17393359,57.742476 L1.17393359,57.742476 C2.73603069,59.3045732 5.26471989,59.3085439 6.82384299,57.7494208 L27.3316378,37.241626 C28.5061083,36.0671555 30.4096448,36.066499 31.5847718,37.241626 L52.0925666,57.7494208 C53.6508283,59.3076825 56.1835574,59.3013947 57.742476,57.742476 L57.742476,57.742476 C59.3045732,56.1803789 59.3085439,53.6516897 57.7494208,52.0925666 L37.241626,31.5847718 C36.0671555,30.4103013 36.066499,28.5067648 37.241626,27.3316378 L57.7494208,6.82384299 C59.3076825,5.26558129 59.3013947,2.73285219 57.742476,1.17393359 L57.742476,1.17393359 C56.1803789,-0.388163609 53.6516897,-0.392134309 52.0925666,1.16698879 L31.5847718,21.6747836 C30.4103013,22.8492541 28.5067648,22.8499106 27.3316378,21.6747836 L6.82384299,1.16698879 C5.26558129,-0.391272909 2.73285219,-0.384985109 1.17393359,1.17393359 L1.17393359,1.17393359 C-0.388163609,2.73603069 -0.392134309,5.26471989 1.16698879,6.82384299 L21.6747836,27.3316378 Z"></path>
            </g>
        </g>
    </g>
</svg>
